<svg width="100" height="100" xmlns="http://www.w3.org/2000/svg">
  <!-- Black Background -->
  <rect width="100" height="100" fill="#000000"/>
  
  <!-- Location Pin (Coral) -->
  <path d="M25 20 Q25 15 30 15 Q35 15 35 20 L35 45 Q35 50 30 55 L30 60 Q30 65 25 65 Q20 65 20 60 L20 55 Q15 50 15 45 Z" fill="#FF6B6B"/>
  
  <!-- Diamond (Teal) -->
  <path d="M40 25 L50 35 L45 50 L35 40 Z" fill="#4ECDC4"/>
  <path d="M40 25 L50 35 L45 50 L35 40 Z" fill="none" stroke="#4ECDC4" stroke-width="1"/>
  
  <!-- Diamond facets -->
  <line x1="40" y1="25" x2="45" y2="50" stroke="#4ECDC4" stroke-width="1"/>
  <line x1="50" y1="35" x2="35" y2="40" stroke="#4ECDC4" stroke-width="1"/>
</svg> 